<svg xmlns="http://www.w3.org/2000/svg" width="1440" height="820" viewBox="0 0 1440 820" role="img" aria-labelledby="title desc">
  <title id="title">SIGNAL Wall of Understanding</title>
  <desc id="desc">A split flow showing the same user input with and without the SIGNAL wall.</desc>
  <defs>
    <marker id="arrow" markerWidth="12" markerHeight="12" refX="10" refY="6" orient="auto">
      <path d="M2,2 L10,6 L2,10 Z" fill="#242424"/>
    </marker>
    <style>
      .bg { fill: #f6f6f2; }
      .title { fill: #202020; font: 800 44px Inter, ui-sans-serif, system-ui, sans-serif; }
      .subtitle { fill: #595959; font: 500 21px Inter, ui-sans-serif, system-ui, sans-serif; }
      .panel-title { fill: #202020; font: 800 22px Inter, ui-sans-serif, system-ui, sans-serif; }
      .panel { fill: #ffffff; stroke: #222; stroke-width: 2; }
      .user { fill: #eef2f7; stroke: #27364a; stroke-width: 2; }
      .input { fill: #fff6df; stroke: #705215; stroke-width: 2; }
      .output { fill: #dfeee7; stroke: #1f5137; stroke-width: 2; }
      .normal { fill: #f1e6e2; stroke: #7a3d2c; stroke-width: 2; }
      .signal { fill: #ffffff; stroke: #222; stroke-width: 2; }
      .formula { fill: #efefea; stroke: #222; stroke-width: 2; }
      .label { fill: #202020; font: 800 18px Inter, ui-sans-serif, system-ui, sans-serif; }
      .body { fill: #555; font: 500 15px Inter, ui-sans-serif, system-ui, sans-serif; }
      .body-dark { fill: #202020; font: 600 15px Inter, ui-sans-serif, system-ui, sans-serif; }
      .small { fill: #555; font: 500 14px Inter, ui-sans-serif, system-ui, sans-serif; }
      .mono { fill: #202020; font: 700 18px ui-monospace, SFMono-Regular, Menlo, Consolas, monospace; }
      .line { stroke: #242424; stroke-width: 2.5; fill: none; marker-end: url(#arrow); }
      .soft-line { stroke: #777; stroke-width: 2; stroke-dasharray: 6 6; fill: none; marker-end: url(#arrow); }
      .bad-line { stroke: #7a3d2c; stroke-width: 2.5; fill: none; marker-end: url(#arrow); }
      .good-line { stroke: #1f5137; stroke-width: 2.5; fill: none; marker-end: url(#arrow); }
    </style>
  </defs>

  <rect class="bg" width="1440" height="820"/>

  <text class="title" x="720" y="66" text-anchor="middle">Wall of Understanding</text>
  <text class="subtitle" x="720" y="104" text-anchor="middle">The same user input can produce a normal response or pass through SIGNAL first.</text>

  <g transform="translate(60 292)">
    <rect class="user" x="0" y="0" width="180" height="112" rx="10"/>
    <text class="label" x="90" y="44" text-anchor="middle">User</text>
    <text class="small" x="90" y="72" text-anchor="middle">same person,</text>
    <text class="small" x="90" y="94" text-anchor="middle">same need</text>
  </g>

  <path class="line" d="M240 348 H310"/>

  <g transform="translate(310 248)">
    <rect class="input" x="0" y="0" width="248" height="200" rx="10"/>
    <text class="panel-title" x="124" y="42" text-anchor="middle">Real entered content</text>
    <text class="body-dark" x="34" y="82">"can you fix this?"</text>
    <text class="small" x="34" y="118">plus visible state, prior turns,</text>
    <text class="small" x="34" y="142">tool limits, risk, evidence,</text>
    <text class="small" x="34" y="166">and user frustration.</text>
  </g>

  <path class="good-line" d="M558 304 H638"/>
  <path class="bad-line" d="M558 392 C620 392 622 580 690 580"/>

  <g transform="translate(638 140)">
    <rect class="panel" x="0" y="0" width="356" height="332" rx="10"/>
    <text class="panel-title" x="178" y="42" text-anchor="middle">SIGNAL wall</text>
    <text class="body" x="178" y="70" text-anchor="middle">internal processing + UX calculation</text>

    <rect class="signal" x="36" y="100" width="82" height="56" rx="7"/>
    <text class="label" x="77" y="123" text-anchor="middle">S</text>
    <text class="small" x="77" y="144" text-anchor="middle">meaning</text>

    <rect class="signal" x="137" y="100" width="82" height="56" rx="7"/>
    <text class="label" x="178" y="123" text-anchor="middle">I</text>
    <text class="small" x="178" y="144" text-anchor="middle">intent</text>

    <rect class="signal" x="238" y="100" width="82" height="56" rx="7"/>
    <text class="label" x="279" y="123" text-anchor="middle">G</text>
    <text class="small" x="279" y="144" text-anchor="middle">ground</text>

    <rect class="signal" x="36" y="174" width="82" height="56" rx="7"/>
    <text class="label" x="77" y="197" text-anchor="middle">N</text>
    <text class="small" x="77" y="218" text-anchor="middle">state</text>

    <rect class="signal" x="137" y="174" width="82" height="56" rx="7"/>
    <text class="label" x="178" y="197" text-anchor="middle">A</text>
    <text class="small" x="178" y="218" text-anchor="middle">control</text>

    <rect class="signal" x="238" y="174" width="82" height="56" rx="7"/>
    <text class="label" x="279" y="197" text-anchor="middle">L</text>
    <text class="small" x="279" y="218" text-anchor="middle">load</text>

    <rect class="formula" x="36" y="250" width="284" height="64" rx="8"/>
    <text class="mono" x="178" y="277" text-anchor="middle">SI = S · I / (1 + X)</text>
    <text class="mono" x="178" y="302" text-anchor="middle">UX = (P + A - L) / (1 + C)</text>
  </g>

  <path class="good-line" d="M994 304 H1064"/>

  <g transform="translate(1064 202)">
    <rect class="output" x="0" y="0" width="260" height="204" rx="10"/>
    <text class="panel-title" x="130" y="40" text-anchor="middle">Optimized response</text>
    <text class="small" x="34" y="78">shows understood context</text>
    <text class="small" x="34" y="106">names uncertainty</text>
    <text class="small" x="34" y="134">keeps action boundary</text>
    <text class="small" x="34" y="162">gives low-effort next step</text>
  </g>

  <path class="good-line" d="M1324 304 C1390 304 1390 704 150 704 C72 704 72 430 150 404"/>

  <g transform="translate(690 508)">
    <rect class="normal" x="0" y="0" width="274" height="144" rx="10"/>
    <text class="panel-title" x="137" y="40" text-anchor="middle">Without SIGNAL pattern</text>
    <text class="small" x="34" y="78">plausible normal response</text>
    <text class="small" x="34" y="106">but generic, rigid, or costly</text>
  </g>

  <path class="bad-line" d="M964 580 H1064"/>

  <g transform="translate(1064 508)">
    <rect class="normal" x="0" y="0" width="260" height="144" rx="10"/>
    <text class="panel-title" x="130" y="40" text-anchor="middle">Normal response</text>
    <text class="small" x="34" y="78">asks again</text>
    <text class="small" x="34" y="106">misses state, risk, or intent</text>
  </g>

  <path class="bad-line" d="M1324 580 C1364 580 1364 680 168 680 C96 680 96 438 168 404"/>

  <text class="small" x="638" y="504">same entered content, different UX path</text>
</svg>
