<svg xmlns="http://www.w3.org/2000/svg" width="1440" height="820" viewBox="0 0 1440 820" role="img" aria-labelledby="title desc">
  <title id="title">SIGNAL Wall of Understanding</title>
  <desc id="desc">A matrix showing SIGNAL responsibilities above each stage of a common AI flow.</desc>
  <defs>
    <marker id="arrow" markerWidth="12" markerHeight="12" refX="10" refY="6" orient="auto">
      <path d="M2,2 L10,6 L2,10 Z" fill="#242424"/>
    </marker>
    <style>
      .bg { fill: #f6f6f2; }
      .title { fill: #202020; font: 800 44px Inter, ui-sans-serif, system-ui, sans-serif; }
      .subtitle { fill: #595959; font: 500 21px Inter, ui-sans-serif, system-ui, sans-serif; }
      .band-title { fill: #202020; font: 800 22px Inter, ui-sans-serif, system-ui, sans-serif; }
      .stage { fill: #e8ecef; stroke: #222; stroke-width: 2; }
      .signal { fill: #ffffff; stroke: #222; stroke-width: 2; }
      .signal-soft { fill: #fdfdfb; stroke: #777; stroke-width: 1.5; }
      .value { fill: #dfeee7; stroke: #1f5137; stroke-width: 2; }
      .stage-text { fill: #202020; font: 800 21px Inter, ui-sans-serif, system-ui, sans-serif; }
      .label { fill: #202020; font: 800 18px Inter, ui-sans-serif, system-ui, sans-serif; }
      .body { fill: #555; font: 500 15px Inter, ui-sans-serif, system-ui, sans-serif; }
      .small { fill: #555; font: 500 14px Inter, ui-sans-serif, system-ui, sans-serif; }
      .line { stroke: #242424; stroke-width: 2.5; fill: none; marker-end: url(#arrow); }
      .down { stroke: #777; stroke-width: 2; stroke-dasharray: 6 6; fill: none; marker-end: url(#arrow); }
    </style>
  </defs>

  <rect class="bg" width="1440" height="820"/>

  <text class="title" x="720" y="66" text-anchor="middle">Wall of Understanding</text>
  <text class="subtitle" x="720" y="104" text-anchor="middle">SIGNAL maps UX responsibilities onto a common AI loop.</text>

  <rect x="72" y="145" width="1296" height="282" rx="10" fill="#ffffff" stroke="#222" stroke-width="2"/>
  <text class="band-title" x="108" y="184">SIGNAL layer</text>
  <text class="body" x="108" y="212">Each component sits above the stage where that responsibility must be preserved.</text>

  <g transform="translate(238 162)">
    <rect class="signal" x="0" y="75" width="180" height="78" rx="7"/>
    <text class="label" x="90" y="105" text-anchor="middle">S - Semantics</text>
    <text class="small" x="90" y="130" text-anchor="middle">clear meaning</text>

    <rect class="signal" x="0" y="165" width="180" height="78" rx="7"/>
    <text class="label" x="90" y="195" text-anchor="middle">I - Intent</text>
    <text class="small" x="90" y="220" text-anchor="middle">what user means</text>

    <rect class="signal" x="218" y="75" width="180" height="78" rx="7"/>
    <text class="label" x="308" y="105" text-anchor="middle">G - Grounding</text>
    <text class="small" x="308" y="130" text-anchor="middle">evidence + limits</text>

    <rect class="signal" x="218" y="165" width="180" height="78" rx="7"/>
    <text class="label" x="308" y="195" text-anchor="middle">N - Navigation</text>
    <text class="small" x="308" y="220" text-anchor="middle">state + path</text>

    <rect class="signal" x="436" y="120" width="180" height="78" rx="7"/>
    <text class="label" x="526" y="150" text-anchor="middle">A - Agency</text>
    <text class="small" x="526" y="175" text-anchor="middle">control boundary</text>

    <rect class="signal-soft" x="654" y="75" width="180" height="78" rx="7"/>
    <text class="label" x="744" y="105" text-anchor="middle">G - Grounding</text>
    <text class="small" x="744" y="130" text-anchor="middle">result support</text>

    <rect class="signal-soft" x="654" y="165" width="180" height="78" rx="7"/>
    <text class="label" x="744" y="195" text-anchor="middle">A/N</text>
    <text class="small" x="744" y="220" text-anchor="middle">scope + recovery</text>

    <rect class="signal" x="872" y="120" width="180" height="78" rx="7"/>
    <text class="label" x="962" y="150" text-anchor="middle">L - Load</text>
    <text class="small" x="962" y="175" text-anchor="middle">low effort</text>
  </g>

  <rect x="72" y="468" width="1296" height="174" rx="10" fill="#ffffff" stroke="#222" stroke-width="2"/>
  <text class="band-title" x="108" y="508">Common AI flow</text>
  <text class="body" x="108" y="536">Works for prompt-only systems, RAG, tools, memory, workflows, MCP, or agents.</text>

  <g transform="translate(238 522)">
    <rect class="stage" x="0" y="45" width="180" height="70" rx="7"/>
    <text class="stage-text" x="90" y="88" text-anchor="middle">Understand</text>

    <rect class="stage" x="218" y="45" width="180" height="70" rx="7"/>
    <text class="stage-text" x="308" y="88" text-anchor="middle">Reason</text>

    <rect class="stage" x="436" y="45" width="180" height="70" rx="7"/>
    <text class="stage-text" x="526" y="88" text-anchor="middle">Act</text>

    <rect class="stage" x="654" y="45" width="180" height="70" rx="7"/>
    <text class="stage-text" x="744" y="88" text-anchor="middle">Validate</text>

    <rect class="stage" x="872" y="45" width="180" height="70" rx="7"/>
    <text class="stage-text" x="962" y="88" text-anchor="middle">Respond</text>

    <path class="line" d="M180 80 H214"/>
    <path class="line" d="M398 80 H432"/>
    <path class="line" d="M616 80 H650"/>
    <path class="line" d="M834 80 H868"/>
  </g>

  <path class="down" d="M328 405 V562"/>
  <path class="down" d="M546 405 V562"/>
  <path class="down" d="M764 405 V562"/>
  <path class="down" d="M982 405 V562"/>
  <path class="down" d="M1200 405 V562"/>

  <g transform="translate(255 700)">
    <rect class="value" x="0" y="0" width="930" height="74" rx="8"/>
    <text class="stage-text" x="465" y="33" text-anchor="middle">Useful AI behavior + visible user value</text>
    <text class="body" x="465" y="58" text-anchor="middle">clear, grounded, proactive, controllable, and low effort</text>
  </g>

  <path class="line" d="M720 642 V694"/>
</svg>
