<svg xmlns="http://www.w3.org/2000/svg" width="1440" height="760" viewBox="0 0 1440 760" role="img" aria-labelledby="title desc">
  <title id="title">SIGNAL Wall of Understanding</title>
  <desc id="desc">SIGNAL components sitting on top of a common AI flow from user context to visible value.</desc>
  <defs>
    <marker id="arrow" markerWidth="12" markerHeight="12" refX="10" refY="6" orient="auto">
      <path d="M2,2 L10,6 L2,10 Z" fill="#2f2f2f"/>
    </marker>
    <style>
      .bg { fill: #f7f7f4; }
      .title { fill: #202020; font: 800 44px Inter, ui-sans-serif, system-ui, sans-serif; }
      .subtitle { fill: #5c5c5c; font: 500 22px Inter, ui-sans-serif, system-ui, sans-serif; }
      .label { fill: #202020; font: 700 24px Inter, ui-sans-serif, system-ui, sans-serif; }
      .small { fill: #555; font: 500 17px Inter, ui-sans-serif, system-ui, sans-serif; }
      .tiny { fill: #666; font: 500 14px Inter, ui-sans-serif, system-ui, sans-serif; }
      .signal { fill: #ffffff; stroke: #222; stroke-width: 2; }
      .flow { fill: #e9ecef; stroke: #222; stroke-width: 2; }
      .value { fill: #dfeee7; stroke: #1f5137; stroke-width: 2; }
      .line { stroke: #2f2f2f; stroke-width: 2.5; fill: none; marker-end: url(#arrow); }
      .softline { stroke: #777; stroke-width: 2; stroke-dasharray: 7 7; fill: none; marker-end: url(#arrow); }
    </style>
  </defs>

  <rect class="bg" width="1440" height="760"/>

  <text class="title" x="720" y="72" text-anchor="middle">Wall of Understanding</text>
  <text class="subtitle" x="720" y="112" text-anchor="middle">SIGNAL sits on top of the common AI flow and assigns UX responsibility to each stage.</text>

  <rect x="70" y="150" width="1300" height="190" rx="8" fill="#ffffff" stroke="#222" stroke-width="2"/>
  <text class="label" x="110" y="192">SIGNAL layer</text>
  <text class="small" x="110" y="222">What the experience must preserve for the user</text>

  <g transform="translate(320 185)">
    <rect class="signal" x="0" y="0" width="125" height="86" rx="6"/>
    <text class="label" x="62.5" y="35" text-anchor="middle">S</text>
    <text class="tiny" x="62.5" y="62" text-anchor="middle">Semantics</text>

    <rect class="signal" x="145" y="0" width="125" height="86" rx="6"/>
    <text class="label" x="207.5" y="35" text-anchor="middle">I</text>
    <text class="tiny" x="207.5" y="62" text-anchor="middle">Intent</text>

    <rect class="signal" x="290" y="0" width="125" height="86" rx="6"/>
    <text class="label" x="352.5" y="35" text-anchor="middle">G</text>
    <text class="tiny" x="352.5" y="62" text-anchor="middle">Grounding</text>

    <rect class="signal" x="435" y="0" width="125" height="86" rx="6"/>
    <text class="label" x="497.5" y="35" text-anchor="middle">N</text>
    <text class="tiny" x="497.5" y="62" text-anchor="middle">Navigation</text>

    <rect class="signal" x="580" y="0" width="125" height="86" rx="6"/>
    <text class="label" x="642.5" y="35" text-anchor="middle">A</text>
    <text class="tiny" x="642.5" y="62" text-anchor="middle">Agency</text>

    <rect class="signal" x="725" y="0" width="125" height="86" rx="6"/>
    <text class="label" x="787.5" y="35" text-anchor="middle">L</text>
    <text class="tiny" x="787.5" y="62" text-anchor="middle">Load</text>
  </g>

  <rect x="70" y="400" width="1300" height="150" rx="8" fill="#ffffff" stroke="#222" stroke-width="2"/>
  <text class="label" x="110" y="442">Common AI flow</text>
  <text class="small" x="110" y="472">The implementation can be prompt-only, RAG, tools, memory, workflows, MCP, or agents.</text>

  <g transform="translate(320 423)">
    <rect class="flow" x="0" y="0" width="140" height="72" rx="6"/>
    <text class="small" x="70" y="42" text-anchor="middle">Understand</text>

    <rect class="flow" x="180" y="0" width="140" height="72" rx="6"/>
    <text class="small" x="250" y="42" text-anchor="middle">Reason</text>

    <rect class="flow" x="360" y="0" width="140" height="72" rx="6"/>
    <text class="small" x="430" y="42" text-anchor="middle">Act</text>

    <rect class="flow" x="540" y="0" width="140" height="72" rx="6"/>
    <text class="small" x="610" y="42" text-anchor="middle">Validate</text>

    <rect class="flow" x="720" y="0" width="140" height="72" rx="6"/>
    <text class="small" x="790" y="42" text-anchor="middle">Respond</text>

    <path class="line" d="M140 36 H176"/>
    <path class="line" d="M320 36 H356"/>
    <path class="line" d="M500 36 H536"/>
    <path class="line" d="M680 36 H716"/>
  </g>

  <path class="softline" d="M382 272 V420"/>
  <path class="softline" d="M528 272 V420"/>
  <path class="softline" d="M673 272 V420"/>
  <path class="softline" d="M818 272 V420"/>
  <path class="softline" d="M963 272 V420"/>
  <path class="softline" d="M1108 272 V420"/>

  <text class="tiny" x="455" y="366" text-anchor="middle">meaning + intent</text>
  <text class="tiny" x="745" y="366" text-anchor="middle">evidence + state</text>
  <text class="tiny" x="963" y="366" text-anchor="middle">control</text>
  <text class="tiny" x="1110" y="366" text-anchor="middle">effort</text>

  <g transform="translate(255 616)">
    <rect class="value" x="0" y="0" width="930" height="72" rx="8"/>
    <text class="label" x="465" y="34" text-anchor="middle">Useful AI behavior + visible user value</text>
    <text class="small" x="465" y="58" text-anchor="middle">clear, grounded, proactive, controllable, and low effort</text>
  </g>

  <path class="line" d="M720 550 V610"/>
</svg>
